<svg xmlns="http://www.w3.org/2000/svg" xmlns:xlink="http://www.w3.org/1999/xlink" x="0px" y="0px" viewBox="0 0 439.37 99.21" style="enable-background:new 0 0 439.37 99.21;" xml:space="preserve"><style type="text/css">	.st0{display:none;}	.st1{display:inline;fill:url(#SVGID_1_);}	.st2{display:inline;fill:#3F2D87;}	.st3{display:inline;fill:#5E5A6B;}	.st4{display:inline;}	.st5{fill:#E71D73;}	.st6{font-family:'Linotte-Regular';}	.st7{font-size:29.3029px;}	.st8{letter-spacing:1;}	.st9{display:inline;fill:url(#SVGID_00000093138598697659720550000009155628615283507130_);}	.st10{display:inline;fill:url(#SVGID_00000178909675755188499790000000747034646957749429_);}	.st11{display:inline;fill:#A69DCD;}	.st12{display:inline;fill:#F29EB7;}	.st13{display:inline;fill:#FFFFFF;}	.st14{display:inline;fill:#3F2E86;}	.st15{display:inline;fill:#E6235C;}	.st16{fill:#FFFFFF;}	.st17{display:inline;fill:url(#SVGID_00000005264436645777750800000010328249111115420837_);}	.st18{display:inline;fill:#BCE4FA;stroke:#00B6ED;stroke-width:0.25;stroke-miterlimit:10;}	.st19{fill:none;stroke:#00B6ED;stroke-width:0.25;stroke-miterlimit:10;}	.st20{display:inline;fill:none;stroke:#00B6ED;stroke-width:0.5;stroke-miterlimit:10;}	.st21{display:inline;fill:none;stroke:#00B6ED;stroke-width:0.25;stroke-miterlimit:10;}	.st22{fill:none;stroke:#00B6ED;stroke-width:0.5;stroke-miterlimit:10;}</style><g id="BG_Gradient" class="st0">	<linearGradient id="SVGID_1_" gradientUnits="userSpaceOnUse" x1="14.4767" y1="254.8633" x2="424.9907" y2="-155.6507">		<stop offset="0" style="stop-color:#3F2D87"></stop>		<stop offset="0.5056" style="stop-color:#AA2B87"></stop>		<stop offset="1" style="stop-color:#E6235C"></stop>	</linearGradient>	<rect x="-61.12" y="-80.05" class="st1" width="561.71" height="259.32"></rect></g><g id="BG_1_Color" class="st0">	<rect x="-61.12" y="-80.05" class="st2" width="561.71" height="259.32"></rect></g><g id="BG_1_Color_copy" class="st0">	<rect x="-61.12" y="-80.05" class="st3" width="561.71" height="259.32"></rect></g><g id="Layer_10" class="st0">	<g class="st4">		<text transform="matrix(1 0 0 1 160.183 114.5642)" class="st5 st6 st7 st8">clube de vantagens</text>	</g></g><g id="clube_x2B_" class="st0">			<linearGradient id="SVGID_00000106845486093701998480000001770699858678987922_" gradientUnits="userSpaceOnUse" x1="403.0507" y1="61.9685" x2="428.024" y2="36.9952">		<stop offset="0" style="stop-color:#3F2D87"></stop>		<stop offset="0.5056" style="stop-color:#AA2B87"></stop>		<stop offset="1" style="stop-color:#E6235C"></stop>	</linearGradient>	<path style="display:inline;fill:url(#SVGID_00000106845486093701998480000001770699858678987922_);" d="M434.13,44.24h-13.4V30.94  c0-1.52-1.23-2.75-2.75-2.75h-4.82c-1.52,0-2.75,1.23-2.75,2.75v13.29h-13.51c-1.52,0-2.75,1.23-2.75,2.75v4.96  c0,1.52,1.23,2.75,2.75,2.75h13.51v13.48c0,1.52,1.23,2.75,2.75,2.75h4.82c1.52,0,2.75-1.23,2.75-2.75V54.69h13.4  c1.52,0,2.75-1.23,2.75-2.75v-4.96C436.88,45.47,435.65,44.24,434.13,44.24z"></path>	<path class="st3" d="M7.89,25.32c2.68,0,4.43,1.13,4.84,3.7l0.31,4.73c3.09-5.35,9.06-8.54,15.74-8.54  c13.48,0,21.81,10.49,21.81,23.87c0,13.99-9.98,24.9-23.87,24.9c-5.76,0-10.6-2.26-13.48-6.28c0,2.16,0.1,5.97,0.1,9.57  c0,3.5,0.21,10.48,0.21,15.52c0,3.7-1.95,5.56-6.27,5.45c-3.29,0-5.04-1.75-5.04-5.35l0.1-42.58l-0.1-19.86  C2.33,26.76,4.7,25.32,7.89,25.32z M26.71,35.1c-7.31,0-13.48,5.97-13.48,14.71c0,9.16,5.04,14.3,12.65,14.3  c7.51,0,13.37-6.28,13.37-15.23C39.27,40.76,33.4,35.1,26.71,35.1z"></path>	<path class="st3" d="M337.17,73.79c-2.68,0-4.43-1.13-4.84-3.7l-0.31-4.73c-3.09,5.35-9.06,8.54-15.74,8.54  c-13.48,0-21.81-10.49-21.81-23.87c0-13.99,9.98-24.9,23.87-24.9c5.76,0,10.6,2.26,13.48,6.28c0-2.16-0.1-5.97-0.1-9.57  c0-3.5-0.21-9.84-0.21-14.88c0-3.7,1.95-5.56,6.27-5.45c3.29,0,5.04,1.75,5.04,5.35l-0.1,41.94l0.1,19.86  C342.72,72.35,340.36,73.79,337.17,73.79z M318.34,64.02c7.31,0,13.48-5.97,13.48-14.71c0-9.16-5.04-14.3-12.65-14.3  c-7.51,0-13.37,6.28-13.37,15.23C305.79,58.36,311.65,64.02,318.34,64.02z"></path>	<path class="st3" d="M84.88,25.49c2.43,0,4.48,1.24,5.35,3.41c3.7,10.94,7.01,21.5,10.22,30.48c2.34-8.36,6.91-28.38,7.5-30.34  c0.58-2.48,1.95-3.61,4.48-3.61c2.53,0,6.03,1.75,6.03,4.64c0,0.21-0.1,0.93-0.19,1.13c-1.65,5.98-4.87,18.47-10.22,36.94  c-1.07,3.41-2.24,5.68-6.62,5.68c-4.38,0-5.84-2.68-7.59-7.95L84.87,40.6L75.9,65.88c-1.75,5.26-3.21,7.95-7.59,7.95  c-4.38,0-5.55-2.27-6.62-5.68c-5.35-18.47-8.57-30.96-10.22-36.94c-0.1-0.21-0.19-0.93-0.19-1.13c0-2.89,3.5-4.64,6.03-4.64  c2.53,0,3.89,1.13,4.48,3.61c0.58,1.96,5.16,21.98,7.5,30.34C72.49,50.4,75.8,39.84,79.5,28.9c0.88-2.17,2.92-3.41,5.35-3.41H84.88  z"></path>	<path class="st3" d="M128.38,25.87c2.37,0,3.91,1.24,4.32,3.72l0.41,5.68c2.98-6.51,8.85-9.81,13.99-9.81  c3.6,0,5.45,1.55,5.45,5.37c0,2.69-1.34,5.37-4.63,5.37h-1.75c-6.79,0-12.45,5.99-12.45,16.31c0,5.16,0.21,10.84,0.1,16.62  c-0.1,3.41-2.47,4.75-5.76,4.75c-3.5,0-5.55-1.45-5.45-6.3c0.1-7.95,0.31-18.07,0.31-25.4c0-3.51-0.1-7.33-0.1-10.94  C122.72,27.63,124.89,25.87,128.38,25.87z"></path>	<path class="st3" d="M368.27,63.71c3.72,0,7.24-1.22,9.76-2.75c1.21-0.71,2.41-1.32,3.92-1.32c2.41,0,4.63,2.55,4.63,5.29  c0,1.94-1.21,3.46-3.02,4.68c-3.72,2.44-8.45,4.07-16.19,4.07c-12.47,0-22.33-10.08-22.53-22.4c0-14.25,10.06-25.76,23.14-25.76  c11.77,0,20.32,9.37,20.32,18.74c0,5.29-0.8,7.94-7.85,8.04c-5.63,0.2-12.47,0.1-24.44,0.2C356.4,58.62,361.43,63.71,368.27,63.71z   M356.1,45.38c5.23,0,16.29-0.1,20.52-0.41c0.7-0.1,1.21-0.41,1.21-0.92c0-5.6-4.63-9.47-9.66-9.47  C361.43,34.59,356.71,39.99,356.1,45.38z"></path>	<path class="st3" d="M242.14,55.63c0,4.42,0.1,8.74,0.41,13.17c0,3.7-2.87,4.73-5.84,4.73c-3.38,0-4.31-2.57-5.02-7.92  c-3.08,5.35-8.41,8.23-15.07,8.23c-13.64,0-22.25-10.29-22.25-22.84c0-15.02,10.25-25.41,23.58-25.41c5.74,0,10.87,2.57,13.94,7.2  c0.2-1.24,0.41-2.88,0.61-3.81c0.72-1.95,2.15-3.19,4.51-3.19c4.1,0,5.33,2.36,5.33,6.27l-0.1,7.92L242.14,55.63z M218.05,64.17  c7.59,0,13.43-5.76,13.43-14.51c0-9.36-6.25-14.4-12.92-14.4c-7.38,0-12.82,6.28-12.82,15.43  C205.75,58.51,211.18,64.17,218.05,64.17z"></path>	<path class="st3" d="M187.58,27.69c1.72,0.82,3.14,1.95,3.14,4.01c0,2.88-1.32,4.84-4.36,4.84c-2.94,0-6.48-2.37-12.26-2.37  c-4.66,0-8.61,2.26-8.61,5.76c0,3.81,4.56,4.12,9.63,4.84c9.73,1.34,17.12,4.42,17.12,13.89c0,9.67-7.5,15.23-19.25,15.23  c-8.92,0-18.03-3.09-18.03-6.69c0-2.88,1.11-5.56,4.36-5.56c3.75,0,7.6,2.98,14.69,2.98c4.46,0,8.11-1.96,8.11-5.66  c0-3.91-3.55-4.94-9.83-5.86c-8.11-1.13-16.92-3.29-16.92-12.55c0-9.06,9.12-15.23,18.64-15.23  C179.78,25.32,184.54,26.25,187.58,27.69z"></path>	<path class="st3" d="M257.91,31.42c-0.1,6.09-0.21,10.73-0.21,18.68c0,7.02,1.98,13.83,9.57,13.83c9.46,0,12.38-7.43,12.48-18.27  V31.21c0-3.92,2.81-5.68,5.93-5.68c3.54,0,5.62,1.55,5.62,5.47c0,1.34-0.21,13.52-0.1,23.64c0.1,7.02,0.42,12.18,0.52,14.25  c0.1,3.1-2.5,4.54-5.51,4.54c-3.02,0-4.68-1.34-5.1-3.92c-0.31-1.86-0.21-3.51-0.52-5.57c-3.02,5.88-8.11,9.91-15.5,9.91  c-13.1,0-18.72-9.19-18.72-21.99c0-5.68,0.1-14.97,0.1-20.33c0-4.23,2.5-5.88,6.34-5.88C256.25,25.64,257.91,27.39,257.91,31.42z"></path>	<path class="st3" d="M265.81,20.84c-1.53,0-4.18-1.94-4.18-3.98c0-0.92,0.41-1.73,1.02-2.65c3.06-3.57,5.51-6.22,9.18-10.61  c1.02-1.22,2.35-2.14,3.77-2.14c2.45,0,5.3,2.45,5.3,5.1c0,1.12-0.71,2.24-1.63,3.26c-3.77,3.98-6.43,6.43-10.51,9.89  C267.85,20.43,266.93,20.84,265.81,20.84z"></path>	<path class="st3" d="M265.81,20.84c-1.53,0-4.18-1.94-4.18-3.98c0-0.92,0.41-1.73,1.02-2.65c3.06-3.57,5.51-6.22,9.18-10.61  c1.02-1.22,2.35-2.14,3.77-2.14c2.45,0,5.3,2.45,5.3,5.1c0,1.12-0.71,2.24-1.63,3.26c-3.77,3.98-6.43,6.43-10.51,9.89  C267.85,20.43,266.93,20.84,265.81,20.84z"></path>			<linearGradient id="SVGID_00000108275012031312977330000011517063053795676566_" gradientUnits="userSpaceOnUse" x1="851.2821" y1="56.9295" x2="876.2554" y2="31.9562">		<stop offset="0" style="stop-color:#3F2D87"></stop>		<stop offset="0.5056" style="stop-color:#AA2B87"></stop>		<stop offset="1" style="stop-color:#E6235C"></stop>	</linearGradient>	<path style="display:inline;fill:url(#SVGID_00000108275012031312977330000011517063053795676566_);" d="M882.36,39.2h-13.4V25.9  c0-1.52-1.23-2.75-2.75-2.75h-4.82c-1.52,0-2.75,1.23-2.75,2.75V39.2h-13.51c-1.52,0-2.75,1.23-2.75,2.75v4.96  c0,1.52,1.23,2.75,2.75,2.75h13.51v13.48c0,1.52,1.23,2.75,2.75,2.75h4.82c1.52,0,2.75-1.23,2.75-2.75V49.65h13.4  c1.52,0,2.75-1.23,2.75-2.75v-4.96C885.11,40.43,883.88,39.2,882.36,39.2z"></path>	<path class="st11" d="M670.15,27.8c0,2.33-1.72,5.26-4.55,5.26c-1.62,0-3.34-0.91-4.35-1.42c-1.62-0.71-3.44-1.11-5.87-1.11  c-7.58,0-12.54,7.89-12.54,14.46c0,7.69,5.16,13.45,12.24,13.45c3.64,0,5.66-0.91,7.58-2.02c1.21-0.61,2.53-1.52,4.04-1.52  c2.53,0,4.45,3.03,4.45,5.56c0,1.42-0.71,2.83-1.92,3.64c-3.13,2.43-7.38,4.35-14.26,4.35c-15.67,0-23.16-12.34-23.16-22.45  c0.1-12.64,9.4-25.48,23.96-25.48c3.94,0,8.29,0.81,12.13,3.24C669.44,24.77,670.15,25.98,670.15,27.8z"></path>	<path class="st11" d="M680.66-5.47c4.04,0,5.66,2.02,5.66,6.27c-0.3,16.28-0.5,34.08-0.5,49.45c0,4.45,0.3,8.8,0.4,12.84  c-0.1,3.24-1.42,4.75-5.16,5.06c-3.74,0.3-6.17-1.72-6.27-7.79c-0.51-13.04-0.1-43.28,0-60.47C674.9-3.75,677.42-5.47,680.66-5.47z  "></path>	<path class="st11" d="M702.58,26.79c-0.1,5.97-0.2,10.52-0.2,18.3c0,6.88,1.92,13.55,9.3,13.55c9.2,0,12.03-7.28,12.13-17.9V26.59  c0-3.84,2.73-5.56,5.76-5.56c3.44,0,5.46,1.52,5.46,5.36c0,1.31-0.2,13.25-0.1,23.16c0.1,6.88,0.4,11.93,0.51,13.95  c0.1,3.03-2.43,4.45-5.36,4.45s-4.55-1.31-4.96-3.84c-0.3-1.82-0.2-3.44-0.51-5.46c-2.93,5.76-7.89,9.71-15.07,9.71  c-12.74,0-18.2-9-18.2-21.54c0-5.56,0.1-14.66,0.1-19.92c0-4.15,2.43-5.76,6.17-5.76C700.96,21.13,702.58,22.85,702.58,26.79z"></path>	<path class="st11" d="M747.15-5.67c2.83,0,5.76,0.81,5.76,4.96c-0.3,19.01-0.2,28.21-0.2,29.22c3.03-5.46,8.9-8.09,15.27-8.09  c12.94,0,21.74,11.02,21.74,23.36c0,13.75-9.71,24.57-23.16,24.57c-5.97,0-11.93-3.13-14.76-8.09l-0.1,3.64  c-0.5,3.03-2.33,4.04-5.36,3.94c-3.24-0.1-4.65-2.02-4.55-6.07l0.3-19.31l-0.3-42.87C741.89-4.25,744.32-5.67,747.15-5.67z   M766.27,30.23c-7.28,0-13.55,5.46-13.55,14.46c0,8.49,6.17,14.06,12.54,14.06c6.98,0,13.35-6.07,13.35-14.86  C778.6,36.4,772.94,30.23,766.27,30.23z"></path>	<path class="st11" d="M816.32,58.44c3.74,0,7.28-1.21,9.81-2.73c1.21-0.71,2.43-1.31,3.94-1.31c2.43,0,4.65,2.53,4.65,5.26  c0,1.92-1.21,3.44-3.03,4.65c-3.74,2.43-8.49,4.04-16.28,4.04c-12.54,0-22.45-10.01-22.65-22.25c0-14.16,10.11-25.58,23.26-25.58  c11.83,0,20.43,9.3,20.43,18.61c0,5.26-0.81,7.89-7.89,7.99c-5.66,0.2-12.54,0.1-24.57,0.2C804.39,53.39,809.45,58.44,816.32,58.44  z M804.09,40.24c5.26,0,16.38-0.1,20.63-0.4c0.71-0.1,1.21-0.4,1.21-0.91c0-5.56-4.65-9.4-9.71-9.4  C809.45,29.52,804.69,34.88,804.09,40.24z"></path>	<path class="st12" d="M882.36-106.67h-13.4v-13.29c0-1.52-1.23-2.75-2.75-2.75h-4.82c-1.52,0-2.75,1.23-2.75,2.75v13.29h-13.51  c-1.52,0-2.75,1.23-2.75,2.75v4.96c0,1.52,1.23,2.75,2.75,2.75h13.51v13.48c0,1.52,1.23,2.75,2.75,2.75h4.82  c1.52,0,2.75-1.23,2.75-2.75v-13.48h13.4c1.52,0,2.75-1.23,2.75-2.75v-4.96C885.11-105.44,883.88-106.67,882.36-106.67z"></path>	<path class="st13" d="M670.15-118.06c0,2.33-1.72,5.26-4.55,5.26c-1.62,0-3.34-0.91-4.35-1.42c-1.62-0.71-3.44-1.11-5.87-1.11  c-7.58,0-12.54,7.89-12.54,14.46c0,7.69,5.16,13.45,12.24,13.45c3.64,0,5.66-0.91,7.58-2.02c1.21-0.61,2.53-1.52,4.04-1.52  c2.53,0,4.45,3.03,4.45,5.56c0,1.42-0.71,2.83-1.92,3.64c-3.13,2.43-7.38,4.35-14.26,4.35c-15.67,0-23.16-12.34-23.16-22.45  c0.1-12.64,9.4-25.48,23.96-25.48c3.94,0,8.29,0.81,12.13,3.24C669.44-121.1,670.15-119.88,670.15-118.06z"></path>	<path class="st13" d="M680.66-151.33c4.04,0,5.66,2.02,5.66,6.27c-0.3,16.28-0.5,34.08-0.5,49.45c0,4.45,0.3,8.8,0.4,12.84  c-0.1,3.24-1.42,4.75-5.16,5.06c-3.74,0.3-6.17-1.72-6.27-7.79c-0.51-13.04-0.1-43.28,0-60.47  C674.9-149.61,677.42-151.33,680.66-151.33z"></path>	<path class="st13" d="M702.58-119.07c-0.1,5.97-0.2,10.52-0.2,18.3c0,6.88,1.92,13.55,9.3,13.55c9.2,0,12.03-7.28,12.13-17.9  v-14.16c0-3.84,2.73-5.56,5.76-5.56c3.44,0,5.46,1.52,5.46,5.36c0,1.31-0.2,13.25-0.1,23.16c0.1,6.88,0.4,11.93,0.51,13.95  c0.1,3.03-2.43,4.45-5.36,4.45s-4.55-1.31-4.96-3.84c-0.3-1.82-0.2-3.44-0.51-5.46c-2.93,5.76-7.89,9.71-15.07,9.71  c-12.74,0-18.2-9-18.2-21.54c0-5.56,0.1-14.66,0.1-19.92c0-4.15,2.43-5.76,6.17-5.76C700.96-124.74,702.58-123.02,702.58-119.07z"></path>	<path class="st13" d="M747.15-151.53c2.83,0,5.76,0.81,5.76,4.96c-0.3,19.01-0.2,28.21-0.2,29.22c3.03-5.46,8.9-8.09,15.27-8.09  c12.94,0,21.74,11.02,21.74,23.36c0,13.75-9.71,24.57-23.16,24.57c-5.97,0-11.93-3.13-14.76-8.09l-0.1,3.64  c-0.5,3.03-2.33,4.04-5.36,3.94c-3.24-0.1-4.65-2.02-4.55-6.07l0.3-19.31l-0.3-42.87C741.89-150.12,744.32-151.53,747.15-151.53z   M766.27-115.64c-7.28,0-13.55,5.46-13.55,14.46c0,8.49,6.17,14.06,12.54,14.06c6.98,0,13.35-6.07,13.35-14.86  C778.6-109.47,772.94-115.64,766.27-115.64z"></path>	<path class="st13" d="M816.32-87.42c3.74,0,7.28-1.21,9.81-2.73c1.21-0.71,2.43-1.31,3.94-1.31c2.43,0,4.65,2.53,4.65,5.26  c0,1.92-1.21,3.44-3.03,4.65c-3.74,2.43-8.49,4.04-16.28,4.04c-12.54,0-22.45-10.01-22.65-22.25c0-14.16,10.11-25.58,23.26-25.58  c11.83,0,20.43,9.3,20.43,18.61c0,5.26-0.81,7.89-7.89,7.99c-5.66,0.2-12.54,0.1-24.57,0.2C804.39-92.48,809.45-87.42,816.32-87.42  z M804.09-105.63c5.26,0,16.38-0.1,20.63-0.4c0.71-0.1,1.21-0.4,1.21-0.91c0-5.56-4.65-9.4-9.71-9.4  C809.45-116.34,804.69-110.98,804.09-105.63z"></path>	<g class="st4">		<text transform="matrix(1 0 0 1 635.8451 -62.4211)" class="st16 st6" style="font-size:9.5852px;">CLUBE DE BENEFÍCIOS + REDE DE DESCONTOS</text>	</g>	<text transform="matrix(1 0 0 1 635.8451 90.407)" class="st14" style="font-family:'Linotte-SemiBold'; font-size:11.838px;">MUITO MAIS VANTAGENS PARA VOCÊ</text>	<polygon class="st14" points="954.55,46.21 947.38,46.21 947.38,39.09 942.8,39.09 942.8,46.21 935.58,46.21 935.58,50.85   942.8,50.85 942.8,58.05 947.38,58.05 947.38,50.85 954.55,50.85  "></polygon>	<polygon class="st15" points="982.8,46.21 975.64,46.21 975.64,39.09 971.06,39.09 971.06,46.21 963.84,46.21 963.84,50.85   971.06,50.85 971.06,58.05 975.64,58.05 975.64,50.85 982.8,50.85  "></polygon>	<polygon class="st11" points="954.55,1.44 947.38,1.44 947.38,-5.68 942.8,-5.68 942.8,1.44 935.58,1.44 935.58,6.08 942.8,6.08   942.8,13.29 947.38,13.29 947.38,6.08 954.55,6.08  "></polygon>	<polygon class="st12" points="982.8,1.44 975.64,1.44 975.64,-5.68 971.06,-5.68 971.06,1.44 963.84,1.44 963.84,6.08 971.06,6.08   971.06,13.29 975.64,13.29 975.64,6.08 982.8,6.08  "></polygon></g><g id="pwrsa&#xFA;de_x2B__1_color_white">	<path class="st16" d="M434.13,44.24h-13.4V30.94c0-1.52-1.23-2.75-2.75-2.75h-4.82c-1.52,0-2.75,1.23-2.75,2.75v13.29h-13.51  c-1.52,0-2.75,1.23-2.75,2.75v4.96c0,1.52,1.23,2.75,2.75,2.75h13.51v13.48c0,1.52,1.23,2.75,2.75,2.75h4.82  c1.52,0,2.75-1.23,2.75-2.75V54.69h13.4c1.52,0,2.75-1.23,2.75-2.75v-4.96C436.88,45.47,435.65,44.24,434.13,44.24z"></path>	<path class="st16" d="M7.89,25.32c2.68,0,4.43,1.13,4.84,3.7l0.31,4.73c3.09-5.35,9.06-8.54,15.74-8.54  c13.48,0,21.81,10.49,21.81,23.87c0,13.99-9.98,24.9-23.87,24.9c-5.76,0-10.6-2.26-13.48-6.28c0,2.16,0.1,5.97,0.1,9.57  c0,3.5,0.21,10.48,0.21,15.52c0,3.7-1.95,5.56-6.27,5.45c-3.29,0-5.04-1.75-5.04-5.35l0.1-42.58l-0.1-19.86  C2.33,26.76,4.7,25.32,7.89,25.32z M26.71,35.1c-7.31,0-13.48,5.97-13.48,14.71c0,9.16,5.04,14.3,12.65,14.3  c7.51,0,13.37-6.28,13.37-15.23C39.27,40.76,33.4,35.1,26.71,35.1z"></path>	<path class="st16" d="M337.17,73.79c-2.68,0-4.43-1.13-4.84-3.7l-0.31-4.73c-3.09,5.35-9.06,8.54-15.74,8.54  c-13.48,0-21.81-10.49-21.81-23.87c0-13.99,9.98-24.9,23.87-24.9c5.76,0,10.6,2.26,13.48,6.28c0-2.16-0.1-5.97-0.1-9.57  c0-3.5-0.21-9.84-0.21-14.88c0-3.7,1.95-5.56,6.27-5.45c3.29,0,5.04,1.75,5.04,5.35l-0.1,41.94l0.1,19.86  C342.72,72.35,340.36,73.79,337.17,73.79z M318.34,64.02c7.31,0,13.48-5.97,13.48-14.71c0-9.16-5.04-14.3-12.65-14.3  c-7.51,0-13.37,6.28-13.37,15.23C305.79,58.36,311.65,64.02,318.34,64.02z"></path>	<path class="st16" d="M84.88,25.49c2.43,0,4.48,1.24,5.35,3.41c3.7,10.94,7.01,21.5,10.22,30.48c2.34-8.36,6.91-28.38,7.5-30.34  c0.58-2.48,1.95-3.61,4.48-3.61c2.53,0,6.03,1.75,6.03,4.64c0,0.21-0.1,0.93-0.19,1.13c-1.65,5.98-4.87,18.47-10.22,36.94  c-1.07,3.41-2.24,5.68-6.62,5.68c-4.38,0-5.84-2.68-7.59-7.95L84.87,40.6L75.9,65.88c-1.75,5.26-3.21,7.95-7.59,7.95  c-4.38,0-5.55-2.27-6.62-5.68c-5.35-18.47-8.57-30.96-10.22-36.94c-0.1-0.21-0.19-0.93-0.19-1.13c0-2.89,3.5-4.64,6.03-4.64  c2.53,0,3.89,1.13,4.48,3.61c0.58,1.96,5.16,21.98,7.5,30.34C72.49,50.4,75.8,39.84,79.5,28.9c0.88-2.17,2.92-3.41,5.35-3.41H84.88  z"></path>	<path class="st16" d="M128.38,25.87c2.37,0,3.91,1.24,4.32,3.72l0.41,5.68c2.98-6.51,8.85-9.81,13.99-9.81  c3.6,0,5.45,1.55,5.45,5.37c0,2.69-1.34,5.37-4.63,5.37h-1.75c-6.79,0-12.45,5.99-12.45,16.31c0,5.16,0.21,10.84,0.1,16.62  c-0.1,3.41-2.47,4.75-5.76,4.75c-3.5,0-5.55-1.45-5.45-6.3c0.1-7.95,0.31-18.07,0.31-25.4c0-3.51-0.1-7.33-0.1-10.94  C122.72,27.63,124.89,25.87,128.38,25.87z"></path>	<path class="st16" d="M368.27,63.71c3.72,0,7.24-1.22,9.76-2.75c1.21-0.71,2.41-1.32,3.92-1.32c2.41,0,4.63,2.55,4.63,5.29  c0,1.94-1.21,3.46-3.02,4.68c-3.72,2.44-8.45,4.07-16.19,4.07c-12.47,0-22.33-10.08-22.53-22.4c0-14.25,10.06-25.76,23.14-25.76  c11.77,0,20.32,9.37,20.32,18.74c0,5.29-0.8,7.94-7.85,8.04c-5.63,0.2-12.47,0.1-24.44,0.2C356.4,58.62,361.43,63.71,368.27,63.71z   M356.1,45.38c5.23,0,16.29-0.1,20.52-0.41c0.7-0.1,1.21-0.41,1.21-0.92c0-5.6-4.63-9.47-9.66-9.47  C361.43,34.59,356.71,39.99,356.1,45.38z"></path>	<path class="st16" d="M242.14,55.63c0,4.42,0.1,8.74,0.41,13.17c0,3.7-2.87,4.73-5.84,4.73c-3.38,0-4.31-2.57-5.02-7.92  c-3.08,5.35-8.41,8.23-15.07,8.23c-13.64,0-22.25-10.29-22.25-22.84c0-15.02,10.25-25.41,23.58-25.41c5.74,0,10.87,2.57,13.94,7.2  c0.2-1.24,0.41-2.88,0.61-3.81c0.72-1.95,2.15-3.19,4.51-3.19c4.1,0,5.33,2.36,5.33,6.27l-0.1,7.92L242.14,55.63z M218.05,64.17  c7.59,0,13.43-5.76,13.43-14.51c0-9.36-6.25-14.4-12.92-14.4c-7.38,0-12.82,6.28-12.82,15.43  C205.75,58.51,211.18,64.17,218.05,64.17z"></path>	<path class="st16" d="M187.58,27.69c1.72,0.82,3.14,1.95,3.14,4.01c0,2.88-1.32,4.84-4.36,4.84c-2.94,0-6.48-2.37-12.26-2.37  c-4.66,0-8.61,2.26-8.61,5.76c0,3.81,4.56,4.12,9.63,4.84c9.73,1.34,17.12,4.42,17.12,13.89c0,9.67-7.5,15.23-19.25,15.23  c-8.92,0-18.03-3.09-18.03-6.69c0-2.88,1.11-5.56,4.36-5.56c3.75,0,7.6,2.98,14.69,2.98c4.46,0,8.11-1.96,8.11-5.66  c0-3.91-3.55-4.94-9.83-5.86c-8.11-1.13-16.92-3.29-16.92-12.55c0-9.06,9.12-15.23,18.64-15.23  C179.78,25.32,184.54,26.25,187.58,27.69z"></path>	<path class="st16" d="M257.91,31.42c-0.1,6.09-0.21,10.73-0.21,18.68c0,7.02,1.98,13.83,9.57,13.83c9.46,0,12.38-7.43,12.48-18.27  V31.21c0-3.92,2.81-5.68,5.93-5.68c3.54,0,5.62,1.55,5.62,5.47c0,1.34-0.21,13.52-0.1,23.64c0.1,7.02,0.42,12.18,0.52,14.25  c0.1,3.1-2.5,4.54-5.51,4.54c-3.02,0-4.68-1.34-5.1-3.92c-0.31-1.86-0.21-3.51-0.52-5.57c-3.02,5.88-8.11,9.91-15.5,9.91  c-13.1,0-18.72-9.19-18.72-21.99c0-5.68,0.1-14.97,0.1-20.33c0-4.23,2.5-5.88,6.34-5.88C256.25,25.64,257.91,27.39,257.91,31.42z"></path>	<path class="st16" d="M265.81,20.84c-1.53,0-4.18-1.94-4.18-3.98c0-0.92,0.41-1.73,1.02-2.65c3.06-3.57,5.51-6.22,9.18-10.61  c1.02-1.22,2.35-2.14,3.77-2.14c2.45,0,5.3,2.45,5.3,5.1c0,1.12-0.71,2.24-1.63,3.26c-3.77,3.98-6.43,6.43-10.51,9.89  C267.85,20.43,266.93,20.84,265.81,20.84z"></path>	<path class="st16" d="M265.81,20.84c-1.53,0-4.18-1.94-4.18-3.98c0-0.92,0.41-1.73,1.02-2.65c3.06-3.57,5.51-6.22,9.18-10.61  c1.02-1.22,2.35-2.14,3.77-2.14c2.45,0,5.3,2.45,5.3,5.1c0,1.12-0.71,2.24-1.63,3.26c-3.77,3.98-6.43,6.43-10.51,9.89  C267.85,20.43,266.93,20.84,265.81,20.84z"></path></g><g id="pwrsa&#xFA;de_x2B__1_color" class="st0">	<path class="st15" d="M434.13,44.24h-13.4V30.94c0-1.52-1.23-2.75-2.75-2.75h-4.82c-1.52,0-2.75,1.23-2.75,2.75v13.29h-13.51  c-1.52,0-2.75,1.23-2.75,2.75v4.96c0,1.52,1.23,2.75,2.75,2.75h13.51v13.48c0,1.52,1.23,2.75,2.75,2.75h4.82  c1.52,0,2.75-1.23,2.75-2.75V54.69h13.4c1.52,0,2.75-1.23,2.75-2.75v-4.96C436.88,45.47,435.65,44.24,434.13,44.24z"></path>	<path class="st15" d="M7.89,25.32c2.68,0,4.43,1.13,4.84,3.7l0.31,4.73c3.09-5.35,9.06-8.54,15.74-8.54  c13.48,0,21.81,10.49,21.81,23.87c0,13.99-9.98,24.9-23.87,24.9c-5.76,0-10.6-2.26-13.48-6.28c0,2.16,0.1,5.97,0.1,9.57  c0,3.5,0.21,10.48,0.21,15.52c0,3.7-1.95,5.56-6.27,5.45c-3.29,0-5.04-1.75-5.04-5.35l0.1-42.58l-0.1-19.86  C2.33,26.76,4.7,25.32,7.89,25.32z M26.71,35.1c-7.31,0-13.48,5.97-13.48,14.71c0,9.16,5.04,14.3,12.65,14.3  c7.51,0,13.37-6.28,13.37-15.23C39.27,40.76,33.4,35.1,26.71,35.1z"></path>	<path class="st15" d="M337.17,73.79c-2.68,0-4.43-1.13-4.84-3.7l-0.31-4.73c-3.09,5.35-9.06,8.54-15.74,8.54  c-13.48,0-21.81-10.49-21.81-23.87c0-13.99,9.98-24.9,23.87-24.9c5.76,0,10.6,2.26,13.48,6.28c0-2.16-0.1-5.97-0.1-9.57  c0-3.5-0.21-9.84-0.21-14.88c0-3.7,1.95-5.56,6.27-5.45c3.29,0,5.04,1.75,5.04,5.35l-0.1,41.94l0.1,19.86  C342.72,72.35,340.36,73.79,337.17,73.79z M318.34,64.02c7.31,0,13.48-5.97,13.48-14.71c0-9.16-5.04-14.3-12.65-14.3  c-7.51,0-13.37,6.28-13.37,15.23C305.79,58.36,311.65,64.02,318.34,64.02z"></path>	<path class="st15" d="M84.88,25.49c2.43,0,4.48,1.24,5.35,3.41c3.7,10.94,7.01,21.5,10.22,30.48c2.34-8.36,6.91-28.38,7.5-30.34  c0.58-2.48,1.95-3.61,4.48-3.61c2.53,0,6.03,1.75,6.03,4.64c0,0.21-0.1,0.93-0.19,1.13c-1.65,5.98-4.87,18.47-10.22,36.94  c-1.07,3.41-2.24,5.68-6.62,5.68c-4.38,0-5.84-2.68-7.59-7.95L84.87,40.6L75.9,65.88c-1.75,5.26-3.21,7.95-7.59,7.95  c-4.38,0-5.55-2.27-6.62-5.68c-5.35-18.47-8.57-30.96-10.22-36.94c-0.1-0.21-0.19-0.93-0.19-1.13c0-2.89,3.5-4.64,6.03-4.64  c2.53,0,3.89,1.13,4.48,3.61c0.58,1.96,5.16,21.98,7.5,30.34C72.49,50.4,75.8,39.84,79.5,28.9c0.88-2.17,2.92-3.41,5.35-3.41H84.88  z"></path>	<path class="st15" d="M128.38,25.87c2.37,0,3.91,1.24,4.32,3.72l0.41,5.68c2.98-6.51,8.85-9.81,13.99-9.81  c3.6,0,5.45,1.55,5.45,5.37c0,2.69-1.34,5.37-4.63,5.37h-1.75c-6.79,0-12.45,5.99-12.45,16.31c0,5.16,0.21,10.84,0.1,16.62  c-0.1,3.41-2.47,4.75-5.76,4.75c-3.5,0-5.55-1.45-5.45-6.3c0.1-7.95,0.31-18.07,0.31-25.4c0-3.51-0.1-7.33-0.1-10.94  C122.72,27.63,124.89,25.87,128.38,25.87z"></path>	<path class="st15" d="M368.27,63.71c3.72,0,7.24-1.22,9.76-2.75c1.21-0.71,2.41-1.32,3.92-1.32c2.41,0,4.63,2.55,4.63,5.29  c0,1.94-1.21,3.46-3.02,4.68c-3.72,2.44-8.45,4.07-16.19,4.07c-12.47,0-22.33-10.08-22.53-22.4c0-14.25,10.06-25.76,23.14-25.76  c11.77,0,20.32,9.37,20.32,18.74c0,5.29-0.8,7.94-7.85,8.04c-5.63,0.2-12.47,0.1-24.44,0.2C356.4,58.62,361.43,63.71,368.27,63.71z   M356.1,45.38c5.23,0,16.29-0.1,20.52-0.41c0.7-0.1,1.21-0.41,1.21-0.92c0-5.6-4.63-9.47-9.66-9.47  C361.43,34.59,356.71,39.99,356.1,45.38z"></path>	<path class="st15" d="M242.14,55.63c0,4.42,0.1,8.74,0.41,13.17c0,3.7-2.87,4.73-5.84,4.73c-3.38,0-4.31-2.57-5.02-7.92  c-3.08,5.35-8.41,8.23-15.07,8.23c-13.64,0-22.25-10.29-22.25-22.84c0-15.02,10.25-25.41,23.58-25.41c5.74,0,10.87,2.57,13.94,7.2  c0.2-1.24,0.41-2.88,0.61-3.81c0.72-1.95,2.15-3.19,4.51-3.19c4.1,0,5.33,2.36,5.33,6.27l-0.1,7.92L242.14,55.63z M218.05,64.17  c7.59,0,13.43-5.76,13.43-14.51c0-9.36-6.25-14.4-12.92-14.4c-7.38,0-12.82,6.28-12.82,15.43  C205.75,58.51,211.18,64.17,218.05,64.17z"></path>	<path class="st15" d="M187.58,27.69c1.72,0.82,3.14,1.95,3.14,4.01c0,2.88-1.32,4.84-4.36,4.84c-2.94,0-6.48-2.37-12.26-2.37  c-4.66,0-8.61,2.26-8.61,5.76c0,3.81,4.56,4.12,9.63,4.84c9.73,1.34,17.12,4.42,17.12,13.89c0,9.67-7.5,15.23-19.25,15.23  c-8.92,0-18.03-3.09-18.03-6.69c0-2.88,1.11-5.56,4.36-5.56c3.75,0,7.6,2.98,14.69,2.98c4.46,0,8.11-1.96,8.11-5.66  c0-3.91-3.55-4.94-9.83-5.86c-8.11-1.13-16.92-3.29-16.92-12.55c0-9.06,9.12-15.23,18.64-15.23  C179.78,25.32,184.54,26.25,187.58,27.69z"></path>	<path class="st15" d="M257.91,31.42c-0.1,6.09-0.21,10.73-0.21,18.68c0,7.02,1.98,13.83,9.57,13.83c9.46,0,12.38-7.43,12.48-18.27  V31.21c0-3.92,2.81-5.68,5.93-5.68c3.54,0,5.62,1.55,5.62,5.47c0,1.34-0.21,13.52-0.1,23.64c0.1,7.02,0.42,12.18,0.52,14.25  c0.1,3.1-2.5,4.54-5.51,4.54c-3.02,0-4.68-1.34-5.1-3.92c-0.31-1.86-0.21-3.51-0.52-5.57c-3.02,5.88-8.11,9.91-15.5,9.91  c-13.1,0-18.72-9.19-18.72-21.99c0-5.68,0.1-14.97,0.1-20.33c0-4.23,2.5-5.88,6.34-5.88C256.25,25.64,257.91,27.39,257.91,31.42z"></path>	<path class="st15" d="M265.81,20.84c-1.53,0-4.18-1.94-4.18-3.98c0-0.92,0.41-1.73,1.02-2.65c3.06-3.57,5.51-6.22,9.18-10.61  c1.02-1.22,2.35-2.14,3.77-2.14c2.45,0,5.3,2.45,5.3,5.1c0,1.12-0.71,2.24-1.63,3.26c-3.77,3.98-6.43,6.43-10.51,9.89  C267.85,20.43,266.93,20.84,265.81,20.84z"></path>	<path class="st15" d="M265.81,20.84c-1.53,0-4.18-1.94-4.18-3.98c0-0.92,0.41-1.73,1.02-2.65c3.06-3.57,5.51-6.22,9.18-10.61  c1.02-1.22,2.35-2.14,3.77-2.14c2.45,0,5.3,2.45,5.3,5.1c0,1.12-0.71,2.24-1.63,3.26c-3.77,3.98-6.43,6.43-10.51,9.89  C267.85,20.43,266.93,20.84,265.81,20.84z"></path></g><g id="pwrsa&#xFA;de_x2B__white_copy" class="st0">			<linearGradient id="SVGID_00000169554523348247825520000004351949567329548460_" gradientUnits="userSpaceOnUse" x1="403.0507" y1="61.9685" x2="428.024" y2="36.9952">		<stop offset="0" style="stop-color:#3F2D87"></stop>		<stop offset="0.5056" style="stop-color:#AA2B87"></stop>		<stop offset="1" style="stop-color:#E6235C"></stop>	</linearGradient>	<path style="display:inline;fill:url(#SVGID_00000169554523348247825520000004351949567329548460_);" d="M434.13,44.24h-13.4V30.94  c0-1.52-1.23-2.75-2.75-2.75h-4.82c-1.52,0-2.75,1.23-2.75,2.75v13.29h-13.51c-1.52,0-2.75,1.23-2.75,2.75v4.96  c0,1.52,1.23,2.75,2.75,2.75h13.51v13.48c0,1.52,1.23,2.75,2.75,2.75h4.82c1.52,0,2.75-1.23,2.75-2.75V54.69h13.4  c1.52,0,2.75-1.23,2.75-2.75v-4.96C436.88,45.47,435.65,44.24,434.13,44.24z"></path>	<path class="st13" d="M7.89,25.32c2.68,0,4.43,1.13,4.84,3.7l0.31,4.73c3.09-5.35,9.06-8.54,15.74-8.54  c13.48,0,21.81,10.49,21.81,23.87c0,13.99-9.98,24.9-23.87,24.9c-5.76,0-10.6-2.26-13.48-6.28c0,2.16,0.1,5.97,0.1,9.57  c0,3.5,0.21,10.48,0.21,15.52c0,3.7-1.95,5.56-6.27,5.45c-3.29,0-5.04-1.75-5.04-5.35l0.1-42.58l-0.1-19.86  C2.33,26.76,4.7,25.32,7.89,25.32z M26.71,35.1c-7.31,0-13.48,5.97-13.48,14.71c0,9.16,5.04,14.3,12.65,14.3  c7.51,0,13.37-6.28,13.37-15.23C39.27,40.76,33.4,35.1,26.71,35.1z"></path>	<path class="st13" d="M337.17,73.79c-2.68,0-4.43-1.13-4.84-3.7l-0.31-4.73c-3.09,5.35-9.06,8.54-15.74,8.54  c-13.48,0-21.81-10.49-21.81-23.87c0-13.99,9.98-24.9,23.87-24.9c5.76,0,10.6,2.26,13.48,6.28c0-2.16-0.1-5.97-0.1-9.57  c0-3.5-0.21-9.84-0.21-14.88c0-3.7,1.95-5.56,6.27-5.45c3.29,0,5.04,1.75,5.04,5.35l-0.1,41.94l0.1,19.86  C342.72,72.35,340.36,73.79,337.17,73.79z M318.34,64.02c7.31,0,13.48-5.97,13.48-14.71c0-9.16-5.04-14.3-12.65-14.3  c-7.51,0-13.37,6.28-13.37,15.23C305.79,58.36,311.65,64.02,318.34,64.02z"></path>	<path class="st13" d="M84.88,25.49c2.43,0,4.48,1.24,5.35,3.41c3.7,10.94,7.01,21.5,10.22,30.48c2.34-8.36,6.91-28.38,7.5-30.34  c0.58-2.48,1.95-3.61,4.48-3.61c2.53,0,6.03,1.75,6.03,4.64c0,0.21-0.1,0.93-0.19,1.13c-1.65,5.98-4.87,18.47-10.22,36.94  c-1.07,3.41-2.24,5.68-6.62,5.68c-4.38,0-5.84-2.68-7.59-7.95L84.87,40.6L75.9,65.88c-1.75,5.26-3.21,7.95-7.59,7.95  c-4.38,0-5.55-2.27-6.62-5.68c-5.35-18.47-8.57-30.96-10.22-36.94c-0.1-0.21-0.19-0.93-0.19-1.13c0-2.89,3.5-4.64,6.03-4.64  c2.53,0,3.89,1.13,4.48,3.61c0.58,1.96,5.16,21.98,7.5,30.34C72.49,50.4,75.8,39.84,79.5,28.9c0.88-2.17,2.92-3.41,5.35-3.41H84.88  z"></path>	<path class="st13" d="M128.38,25.87c2.37,0,3.91,1.24,4.32,3.72l0.41,5.68c2.98-6.51,8.85-9.81,13.99-9.81  c3.6,0,5.45,1.55,5.45,5.37c0,2.69-1.34,5.37-4.63,5.37h-1.75c-6.79,0-12.45,5.99-12.45,16.31c0,5.16,0.21,10.84,0.1,16.62  c-0.1,3.41-2.47,4.75-5.76,4.75c-3.5,0-5.55-1.45-5.45-6.3c0.1-7.95,0.31-18.07,0.31-25.4c0-3.51-0.1-7.33-0.1-10.94  C122.72,27.63,124.89,25.87,128.38,25.87z"></path>	<path class="st13" d="M368.27,63.71c3.72,0,7.24-1.22,9.76-2.75c1.21-0.71,2.41-1.32,3.92-1.32c2.41,0,4.63,2.55,4.63,5.29  c0,1.94-1.21,3.46-3.02,4.68c-3.72,2.44-8.45,4.07-16.19,4.07c-12.47,0-22.33-10.08-22.53-22.4c0-14.25,10.06-25.76,23.14-25.76  c11.77,0,20.32,9.37,20.32,18.74c0,5.29-0.8,7.94-7.85,8.04c-5.63,0.2-12.47,0.1-24.44,0.2C356.4,58.62,361.43,63.71,368.27,63.71z   M356.1,45.38c5.23,0,16.29-0.1,20.52-0.41c0.7-0.1,1.21-0.41,1.21-0.92c0-5.6-4.63-9.47-9.66-9.47  C361.43,34.59,356.71,39.99,356.1,45.38z"></path>	<path class="st13" d="M242.14,55.63c0,4.42,0.1,8.74,0.41,13.17c0,3.7-2.87,4.73-5.84,4.73c-3.38,0-4.31-2.57-5.02-7.92  c-3.08,5.35-8.41,8.23-15.07,8.23c-13.64,0-22.25-10.29-22.25-22.84c0-15.02,10.25-25.41,23.58-25.41c5.74,0,10.87,2.57,13.94,7.2  c0.2-1.24,0.41-2.88,0.61-3.81c0.72-1.95,2.15-3.19,4.51-3.19c4.1,0,5.33,2.36,5.33,6.27l-0.1,7.92L242.14,55.63z M218.05,64.17  c7.59,0,13.43-5.76,13.43-14.51c0-9.36-6.25-14.4-12.92-14.4c-7.38,0-12.82,6.28-12.82,15.43  C205.75,58.51,211.18,64.17,218.05,64.17z"></path>	<path class="st13" d="M187.58,27.69c1.72,0.82,3.14,1.95,3.14,4.01c0,2.88-1.32,4.84-4.36,4.84c-2.94,0-6.48-2.37-12.26-2.37  c-4.66,0-8.61,2.26-8.61,5.76c0,3.81,4.56,4.12,9.63,4.84c9.73,1.34,17.12,4.42,17.12,13.89c0,9.67-7.5,15.23-19.25,15.23  c-8.92,0-18.03-3.09-18.03-6.69c0-2.88,1.11-5.56,4.36-5.56c3.75,0,7.6,2.98,14.69,2.98c4.46,0,8.11-1.96,8.11-5.66  c0-3.91-3.55-4.94-9.83-5.86c-8.11-1.13-16.92-3.29-16.92-12.55c0-9.06,9.12-15.23,18.64-15.23  C179.78,25.32,184.54,26.25,187.58,27.69z"></path>	<path class="st13" d="M257.91,31.42c-0.1,6.09-0.21,10.73-0.21,18.68c0,7.02,1.98,13.83,9.57,13.83c9.46,0,12.38-7.43,12.48-18.27  V31.21c0-3.92,2.81-5.68,5.93-5.68c3.54,0,5.62,1.55,5.62,5.47c0,1.34-0.21,13.52-0.1,23.64c0.1,7.02,0.42,12.18,0.52,14.25  c0.1,3.1-2.5,4.54-5.51,4.54c-3.02,0-4.68-1.34-5.1-3.92c-0.31-1.86-0.21-3.51-0.52-5.57c-3.02,5.88-8.11,9.91-15.5,9.91  c-13.1,0-18.72-9.19-18.72-21.99c0-5.68,0.1-14.97,0.1-20.33c0-4.23,2.5-5.88,6.34-5.88C256.25,25.64,257.91,27.39,257.91,31.42z"></path>	<path class="st13" d="M265.81,20.84c-1.53,0-4.18-1.94-4.18-3.98c0-0.92,0.41-1.73,1.02-2.65c3.06-3.57,5.51-6.22,9.18-10.61  c1.02-1.22,2.35-2.14,3.77-2.14c2.45,0,5.3,2.45,5.3,5.1c0,1.12-0.71,2.24-1.63,3.26c-3.77,3.98-6.43,6.43-10.51,9.89  C267.85,20.43,266.93,20.84,265.81,20.84z"></path>	<path class="st13" d="M265.81,20.84c-1.53,0-4.18-1.94-4.18-3.98c0-0.92,0.41-1.73,1.02-2.65c3.06-3.57,5.51-6.22,9.18-10.61  c1.02-1.22,2.35-2.14,3.77-2.14c2.45,0,5.3,2.45,5.3,5.1c0,1.12-0.71,2.24-1.63,3.26c-3.77,3.98-6.43,6.43-10.51,9.89  C267.85,20.43,266.93,20.84,265.81,20.84z"></path></g><g id="GRID" class="st0">	<path class="st18" d="M434.13,44.24h-13.4V30.94c0-1.52-1.23-2.75-2.75-2.75h-4.82c-1.52,0-2.75,1.23-2.75,2.75v13.29h-13.51  c-1.52,0-2.75,1.23-2.75,2.75v4.96c0,1.52,1.23,2.75,2.75,2.75h13.51v13.48c0,1.52,1.23,2.75,2.75,2.75h4.82  c1.52,0,2.75-1.23,2.75-2.75V54.69h13.4c1.52,0,2.75-1.23,2.75-2.75v-4.96C436.88,45.47,435.65,44.24,434.13,44.24z"></path>	<path class="st18" d="M258.01,31.42c-0.1,6.09-0.21,10.73-0.21,18.68c0,7.02,1.98,13.83,9.57,13.83c9.46,0,12.38-7.43,12.48-18.27  V31.21c0-3.92,2.81-5.68,5.93-5.68c3.54,0,5.62,1.55,5.62,5.47c0,1.34-0.21,13.52-0.1,23.64c0.1,7.02,0.42,12.18,0.52,14.25  c0.1,3.1-2.5,4.54-5.51,4.54c-3.02,0-4.68-1.34-5.1-3.92c-0.31-1.86-0.21-3.51-0.52-5.57c-3.02,5.88-8.11,9.91-15.5,9.91  c-13.1,0-18.72-9.19-18.72-21.99c0-5.68,0.1-14.97,0.1-20.33c0-4.23,2.5-5.88,6.34-5.88C256.34,25.64,258.01,27.39,258.01,31.42z"></path>	<path class="st18" d="M265.9,20.84c-1.53,0-4.18-1.94-4.18-3.98c0-0.92,0.41-1.73,1.02-2.65c3.06-3.57,5.51-6.22,9.18-10.61  c1.02-1.22,2.35-2.14,3.77-2.14c2.45,0,5.3,2.45,5.3,5.1c0,1.12-0.71,2.24-1.63,3.26c-3.77,3.98-6.43,6.43-10.51,9.89  C267.94,20.43,267.03,20.84,265.9,20.84z"></path>	<path class="st18" d="M258.01,31.42c-0.1,6.09-0.21,10.73-0.21,18.68c0,7.02,1.98,13.83,9.57,13.83c9.46,0,12.38-7.43,12.48-18.27  V31.21c0-3.92,2.81-5.68,5.93-5.68c3.54,0,5.62,1.55,5.62,5.47c0,1.34-0.21,13.52-0.1,23.64c0.1,7.02,0.42,12.18,0.52,14.25  c0.1,3.1-2.5,4.54-5.51,4.54c-3.02,0-4.68-1.34-5.1-3.92c-0.31-1.86-0.21-3.51-0.52-5.57c-3.02,5.88-8.11,9.91-15.5,9.91  c-13.1,0-18.72-9.19-18.72-21.99c0-5.68,0.1-14.97,0.1-20.33c0-4.23,2.5-5.88,6.34-5.88C256.34,25.64,258.01,27.39,258.01,31.42z"></path>	<path class="st18" d="M265.9,20.84c-1.53,0-4.18-1.94-4.18-3.98c0-0.92,0.41-1.73,1.02-2.65c3.06-3.57,5.51-6.22,9.18-10.61  c1.02-1.22,2.35-2.14,3.77-2.14c2.45,0,5.3,2.45,5.3,5.1c0,1.12-0.71,2.24-1.63,3.26c-3.77,3.98-6.43,6.43-10.51,9.89  C267.94,20.43,267.03,20.84,265.9,20.84z"></path>	<path class="st18" d="M7.98,25.32c2.68,0,4.43,1.13,4.84,3.7l0.31,4.73c3.09-5.35,9.06-8.54,15.74-8.54  c13.48,0,21.81,10.49,21.81,23.87c0,13.99-9.98,24.9-23.87,24.9c-5.76,0-10.6-2.26-13.48-6.28c0,2.16,0.1,5.97,0.1,9.57  c0,3.5,0.21,10.48,0.21,15.52c0,3.7-1.95,5.56-6.27,5.45c-3.29,0-5.04-1.75-5.04-5.35l0.1-42.58l-0.1-19.86  C2.43,26.76,4.79,25.32,7.98,25.32z M26.81,35.1c-7.31,0-13.48,5.97-13.48,14.71c0,9.16,5.04,14.3,12.65,14.3  c7.51,0,13.37-6.28,13.37-15.23C39.36,40.76,33.5,35.1,26.81,35.1z"></path>	<g class="st4">		<line class="st19" x1="13.33" y1="1.49" x2="13.33" y2="98.02"></line>		<line class="st19" x1="2.43" y1="1.49" x2="2.43" y2="98.02"></line>		<line class="st19" x1="5.15" y1="1.49" x2="5.15" y2="98.02"></line>		<line class="st19" x1="10.61" y1="1.49" x2="10.61" y2="98.02"></line>		<line class="st19" x1="7.88" y1="1.49" x2="7.88" y2="98.02"></line>	</g>	<path class="st18" d="M337.25,73.79c-2.68,0-4.43-1.13-4.84-3.7l-0.31-4.73c-3.09,5.35-9.06,8.54-15.74,8.54  c-13.48,0-21.81-10.49-21.81-23.87c0-13.99,9.98-24.9,23.87-24.9c5.76,0,10.6,2.26,13.48,6.28c0-2.16-0.1-5.97-0.1-9.57  c0-3.5-0.21-9.84-0.21-14.88c0-3.7,1.95-5.56,6.27-5.45c3.29,0,5.04,1.75,5.04,5.35l-0.1,41.94l0.1,19.86  C342.81,72.35,340.44,73.79,337.25,73.79z M318.43,64.02c7.31,0,13.48-5.97,13.48-14.71c0-9.16-5.04-14.3-12.65-14.3  c-7.51,0-13.37,6.28-13.37,15.23C305.87,58.36,311.74,64.02,318.43,64.02z"></path>	<path class="st18" d="M84.98,25.49c2.43,0,4.48,1.24,5.35,3.41c3.7,10.94,7.01,21.5,10.22,30.48c2.34-8.36,6.91-28.38,7.5-30.34  c0.58-2.48,1.95-3.61,4.48-3.61c2.53,0,6.03,1.75,6.03,4.64c0,0.21-0.1,0.93-0.19,1.13c-1.65,5.98-4.87,18.47-10.22,36.94  c-1.07,3.41-2.24,5.68-6.62,5.68c-4.38,0-5.84-2.68-7.59-7.95L84.97,40.6L76,65.88c-1.75,5.26-3.21,7.95-7.59,7.95  c-4.38,0-5.55-2.27-6.62-5.68c-5.35-18.47-8.57-30.96-10.22-36.94c-0.1-0.21-0.19-0.93-0.19-1.13c0-2.89,3.5-4.64,6.03-4.64  c2.53,0,3.89,1.13,4.48,3.61c0.58,1.96,5.16,21.98,7.5,30.34C72.59,50.4,75.9,39.84,79.6,28.9c0.88-2.17,2.92-3.41,5.35-3.41H84.98  z"></path>	<path class="st18" d="M128.48,25.87c2.37,0,3.91,1.24,4.32,3.72l0.41,5.68c2.98-6.51,8.85-9.81,13.99-9.81  c3.6,0,5.45,1.55,5.45,5.37c0,2.69-1.34,5.37-4.63,5.37h-1.75c-6.79,0-12.45,5.99-12.45,16.31c0,5.16,0.21,10.84,0.1,16.62  c-0.1,3.41-2.47,4.75-5.76,4.75c-3.5,0-5.55-1.45-5.45-6.3c0.1-7.95,0.31-18.07,0.31-25.4c0-3.51-0.1-7.33-0.1-10.94  C122.82,27.63,124.98,25.87,128.48,25.87z"></path>	<path class="st18" d="M368.5,63.71c3.72,0,7.24-1.22,9.76-2.75c1.21-0.71,2.41-1.32,3.92-1.32c2.41,0,4.63,2.55,4.63,5.29  c0,1.94-1.21,3.46-3.02,4.68c-3.72,2.44-8.45,4.07-16.19,4.07c-12.47,0-22.33-10.08-22.53-22.4c0-14.25,10.06-25.76,23.14-25.76  c11.77,0,20.32,9.37,20.32,18.74c0,5.29-0.8,7.94-7.85,8.04c-5.63,0.2-12.47,0.1-24.44,0.2C356.63,58.62,361.66,63.71,368.5,63.71z   M356.33,45.38c5.23,0,16.29-0.1,20.52-0.41c0.7-0.1,1.21-0.41,1.21-0.92c0-5.6-4.63-9.47-9.66-9.47  C361.66,34.59,356.93,39.99,356.33,45.38z"></path>	<path class="st18" d="M242.43,55.63c0,4.42,0.1,8.74,0.41,13.17c0,3.7-2.87,4.73-5.84,4.73c-3.38,0-4.31-2.57-5.02-7.92  c-3.08,5.35-8.41,8.23-15.07,8.23c-13.64,0-22.25-10.29-22.25-22.84c0-15.02,10.25-25.41,23.58-25.41c5.74,0,10.87,2.57,13.94,7.2  c0.2-1.24,0.41-2.88,0.61-3.81c0.72-1.95,2.15-3.19,4.51-3.19c4.1,0,5.33,2.36,5.33,6.27l-0.1,7.92L242.43,55.63z M218.33,64.17  c7.59,0,13.43-5.76,13.43-14.51c0-9.36-6.25-14.4-12.92-14.4c-7.38,0-12.82,6.28-12.82,15.43  C206.03,58.51,211.46,64.17,218.33,64.17z"></path>	<path class="st18" d="M187.68,27.69c1.72,0.82,3.14,1.95,3.14,4.01c0,2.88-1.32,4.84-4.36,4.84c-2.94,0-6.48-2.37-12.26-2.37  c-4.66,0-8.61,2.26-8.61,5.76c0,3.81,4.56,4.12,9.63,4.84c9.73,1.34,17.12,4.42,17.12,13.89c0,9.67-7.5,15.23-19.25,15.23  c-8.92,0-18.03-3.09-18.03-6.69c0-2.88,1.11-5.56,4.36-5.56c3.75,0,7.6,2.98,14.69,2.98c4.46,0,8.11-1.96,8.11-5.66  c0-3.91-3.55-4.94-9.83-5.86c-8.11-1.13-16.92-3.29-16.92-12.55c0-9.06,9.12-15.23,18.64-15.23  C179.88,25.32,184.64,26.25,187.68,27.69z"></path>	<line class="st20" x1="2.43" y1="73.89" x2="436.85" y2="73.89"></line>	<g class="st4">		<line class="st19" x1="294.38" y1="1.49" x2="294.73" y2="98.33"></line>		<line class="st19" x1="289" y1="1.49" x2="289.34" y2="98.33"></line>		<line class="st19" x1="286.31" y1="1.49" x2="286.65" y2="98.33"></line>		<line class="st19" x1="291.69" y1="1.49" x2="292.03" y2="98.33"></line>	</g>	<g class="st4">		<line class="st19" x1="251.73" y1="1.49" x2="252.07" y2="98.33"></line>		<line class="st19" x1="246.34" y1="1.49" x2="246.69" y2="98.33"></line>		<line class="st19" x1="243.65" y1="1.49" x2="243.99" y2="98.33"></line>		<line class="st19" x1="249.04" y1="1.49" x2="249.38" y2="98.33"></line>	</g>	<g class="st4">		<line class="st19" x1="396.68" y1="1.49" x2="397.03" y2="98.33"></line>		<line class="st19" x1="391.3" y1="1.49" x2="391.64" y2="98.33"></line>		<line class="st19" x1="388.61" y1="1.49" x2="388.95" y2="98.33"></line>		<line class="st19" x1="393.99" y1="1.49" x2="394.33" y2="98.33"></line>	</g>	<g class="st4">		<line class="st19" x1="350.99" y1="1.49" x2="351.33" y2="98.33"></line>		<line class="st19" x1="345.6" y1="1.49" x2="345.95" y2="98.33"></line>		<line class="st19" x1="342.91" y1="1.49" x2="343.25" y2="98.33"></line>		<line class="st19" x1="348.3" y1="1.49" x2="348.64" y2="98.33"></line>	</g>	<g class="st4">		<line class="st19" x1="157.98" y1="1.49" x2="158.33" y2="98.33"></line>		<line class="st19" x1="152.6" y1="1.49" x2="152.94" y2="98.33"></line>		<line class="st19" x1="149.91" y1="1.49" x2="150.25" y2="98.33"></line>		<line class="st19" x1="155.29" y1="1.49" x2="155.63" y2="98.33"></line>	</g>	<g class="st4">		<line class="st19" x1="198.81" y1="1.49" x2="199.15" y2="98.33"></line>		<line class="st19" x1="193.43" y1="1.49" x2="193.77" y2="98.33"></line>		<line class="st19" x1="190.73" y1="1.49" x2="191.08" y2="98.33"></line>		<line class="st19" x1="196.12" y1="1.49" x2="196.46" y2="98.33"></line>	</g>	<g class="st4">		<line class="st19" x1="122.99" y1="1.49" x2="123.33" y2="98.33"></line>		<line class="st19" x1="117.61" y1="1.49" x2="117.95" y2="98.33"></line>		<line class="st19" x1="114.92" y1="1.49" x2="115.26" y2="98.33"></line>		<line class="st19" x1="120.3" y1="1.49" x2="120.64" y2="98.33"></line>	</g>	<line class="st21" x1="52.34" y1="1.49" x2="52.69" y2="98.33"></line>	<line class="st21" x1="49.65" y1="1.49" x2="49.99" y2="98.33"></line>	<g class="st4">		<path class="st19" d="M176.21,98.14"></path>		<path class="st19" d="M175.87-14.33"></path>		<path class="st19" d="M170.82,98.14"></path>		<path class="st19" d="M170.48-14.33"></path>	</g>	<line class="st20" x1="2.43" y1="25.62" x2="436.86" y2="25.62"></line>	<line class="st20" x1="2.43" y1="28.2" x2="436.86" y2="28.2"></line>	<line class="st20" x1="2.43" y1="70.91" x2="436.86" y2="70.91"></line>	<g class="st4">		<circle class="st22" cx="66.67" cy="49.76" r="64.36"></circle>	</g>	<g class="st4">		<circle class="st22" cx="195.38" cy="49.76" r="64.36"></circle>	</g>	<g class="st4">		<circle class="st22" cx="324.09" cy="49.76" r="64.36"></circle>	</g></g><g id="GUIDES" class="st0">	<line class="st21" x1="163.36" y1="-63.41" x2="163.36" y2="162.62"></line>	<line class="st21" x1="179.45" y1="-63.41" x2="179.45" y2="162.62"></line>	<line class="st20" x1="195.54" y1="-63.41" x2="195.54" y2="162.62"></line>	<line class="st21" x1="227.72" y1="-63.41" x2="227.72" y2="162.62"></line>	<line class="st21" x1="211.63" y1="-63.41" x2="211.63" y2="162.62"></line>	<line class="st21" x1="243.81" y1="-63.41" x2="243.81" y2="162.62"></line>	<line class="st20" x1="259.9" y1="-63.41" x2="259.9" y2="162.62"></line>	<line class="st21" x1="292.08" y1="-63.41" x2="292.08" y2="162.62"></line>	<line class="st21" x1="275.99" y1="-63.41" x2="275.99" y2="162.62"></line>	<line class="st21" x1="308.16" y1="-63.41" x2="308.16" y2="162.62"></line>	<line class="st20" x1="324.25" y1="-63.41" x2="324.25" y2="162.62"></line>	<line class="st21" x1="356.43" y1="-63.41" x2="356.43" y2="162.62"></line>	<line class="st21" x1="340.34" y1="-63.41" x2="340.34" y2="162.62"></line>	<line class="st21" x1="372.52" y1="-63.41" x2="372.52" y2="162.62"></line>	<line class="st20" x1="388.61" y1="-63.41" x2="388.61" y2="162.62"></line>	<line class="st21" x1="420.79" y1="-63.41" x2="420.79" y2="162.62"></line>	<line class="st21" x1="404.7" y1="-63.41" x2="404.7" y2="162.62"></line>	<line class="st20" x1="436.88" y1="-63.41" x2="436.88" y2="162.62"></line>	<line class="st21" x1="452.96" y1="-63.41" x2="452.96" y2="162.62"></line>	<line class="st20" x1="485.14" y1="-63.41" x2="485.14" y2="162.62"></line>	<line class="st21" x1="469.05" y1="-63.41" x2="469.05" y2="162.62"></line>	<line class="st21" x1="147.41" y1="-63.41" x2="147.41" y2="162.62"></line>	<line class="st21" x1="-45.77" y1="81.94" x2="485.29" y2="81.94"></line>	<line class="st20" x1="-45.77" y1="98.02" x2="485.29" y2="98.02"></line>	<line class="st20" x1="-45.77" y1="49.76" x2="485.29" y2="49.76"></line>	<line class="st21" x1="-45.77" y1="65.85" x2="485.29" y2="65.85"></line>	<line class="st21" x1="-45.77" y1="33.67" x2="485.29" y2="33.67"></line>	<line class="st20" x1="-45.77" y1="114.11" x2="485.29" y2="114.11"></line>	<line class="st20" x1="-45.77" y1="-14.6" x2="485.29" y2="-14.6"></line>	<line class="st21" x1="-45.77" y1="146.21" x2="485.29" y2="146.21"></line>	<line class="st21" x1="-45.77" y1="130.16" x2="485.29" y2="130.16"></line>	<line class="st21" x1="-45.77" y1="-31.12" x2="485.29" y2="-31.12"></line>	<line class="st21" x1="-45.77" y1="-47.17" x2="485.29" y2="-47.17"></line>	<line class="st21" x1="-45.77" y1="17.58" x2="485.29" y2="17.58"></line>	<line class="st21" x1="-45.77" y1="1.49" x2="485.29" y2="1.49"></line>	<line class="st20" x1="2.49" y1="-63.41" x2="2.49" y2="162.62"></line>	<line class="st21" x1="-13.6" y1="-63.41" x2="-13.6" y2="162.62"></line>	<line class="st21" x1="-29.68" y1="-63.41" x2="-29.68" y2="162.43"></line>	<line class="st20" x1="131.19" y1="-63.41" x2="131.19" y2="162.62"></line>	<line class="st21" x1="18.58" y1="-63.41" x2="18.58" y2="162.62"></line>	<line class="st21" x1="34.66" y1="-63.41" x2="34.66" y2="162.62"></line>	<line class="st20" x1="66.84" y1="-63.41" x2="66.84" y2="162.62"></line>	<line class="st21" x1="50.75" y1="-63.41" x2="50.75" y2="162.62"></line>	<line class="st21" x1="82.93" y1="-63.41" x2="82.93" y2="162.62"></line>	<line class="st21" x1="99.01" y1="-63.41" x2="99.01" y2="162.62"></line>	<line class="st21" x1="115.1" y1="-63.41" x2="115.1" y2="162.62"></line>	<line class="st20" x1="-45.77" y1="162.62" x2="485.29" y2="162.62"></line>	<line class="st20" x1="-45.77" y1="-63.41" x2="485.29" y2="-63.41"></line>	<line class="st20" x1="-45.77" y1="-63.41" x2="-45.77" y2="162.62"></line></g></svg>